This is from a VHS transfer to digital from a SD 

broadcast. Grab the sample and see if you want to 

download the full file. Also included is an MP3 of 

the entire show uncut. Enjoy and please share.		

							

							

							

							

							

							

					

**************************************************

**************************************************

**************************************************

**************************************************

****							

							

							

							

							

							

							

	                                                Martina_McBride_Soundstage_10-15-05.avi
Format                           : AVI
Format/Info                      : Audio Video 

Interleave
File size                        : 996 MiB
Duration                         : 1h 50mn
Overall bit rate                 : 1 262 Kbps
Movie name                       : 

Martina_McBride_Soundstage_10-15-05.mpg
Director                         : 

created.with.SUPER(C).v2010.bld.37
Writing application              : SUPER(C)   

Video
ID                               : 0
Format                           : MPEG-4 Visual
Format profile                   : Simple@L3
Format settings, BVOP            : No
Format settings, QPel            : No
Format settings, GMC             : No warppoints
Format settings, Matrix          : Default (H.263)
Codec ID                         : XVID
Codec ID/Hint                    : XviD
Duration                         : 55mn 9s
Bit rate                         : 2 400 Kbps
Width                            : 624 pixels
Height                           : 352 pixels
Display aspect ratio             : 16:9
Frame rate                       : 23.976 fps
Color space                      : YUV
Chroma subsampling               : 4:2:0
Bit depth                        : 8 bits
Scan type                        : Progressive
Bits/(Pixel*Frame)               : 0.456
Stream size                      : 947 MiB (95%)
Writing library                  : XviD 1.1.2 (UTC 

2006-11-01)

Audio
ID                               : 1
Format                           : MPEG Audio
Format version                   : Version 2
Format profile                   : Layer 3
Mode                             : Joint stereo
Mode extension                   : MS Stereo
Codec ID                         : 55
Codec ID/Hint                    : MP3
Duration                         : 1h 50mn
Bit rate mode                    : Constant
Bit rate                         : 112 Kbps
Channel(s)                       : 2 channels
Sampling rate                    : 22.05 KHz
Stream size                      : 44.2 MiB (4%)
Alignment                        : Aligned on 

interleaves
Interleave, duration             : 26 ms (0.63 

video frame)
Writing library                  : LAME3.98

